<?xml version="1.0" encoding="UTF-8" standalone="no"?>
<!DOCTYPE svg PUBLIC "-//W3C//DTD SVG 1.1//EN"
 "http://www.w3.org/Graphics/SVG/1.1/DTD/svg11.dtd">
<!-- Generated by graphviz version 2.38.0 (20140413.2041)
 -->
<!-- Title: snakemake_dag Pages: 1 -->
<svg width="293pt" height="260pt"
 viewBox="0.00 0.00 293.26 260.00" xmlns="http://www.w3.org/2000/svg" xmlns:xlink="http://www.w3.org/1999/xlink">
<g id="graph0" class="graph" transform="scale(1 1) rotate(0) translate(4 256)">
<title>snakemake_dag</title>
<polygon fill="white" stroke="none" points="-4,4 -4,-256 289.261,-256 289.261,4 -4,4"/>
<!-- 0 -->
<g id="node1" class="node"><title>0</title>
<path fill="none" stroke="#56d8d8" stroke-width="2" d="M148.63,-36C148.63,-36 118.63,-36 118.63,-36 112.63,-36 106.63,-30 106.63,-24 106.63,-24 106.63,-12 106.63,-12 106.63,-6 112.63,-0 118.63,-0 118.63,-0 148.63,-0 148.63,-0 154.63,-0 160.63,-6 160.63,-12 160.63,-12 160.63,-24 160.63,-24 160.63,-30 154.63,-36 148.63,-36"/>
<text text-anchor="middle" x="133.63" y="-15" font-family="sans" font-size="10.00">all</text>
</g>
<!-- 1 -->
<g id="node2" class="node"><title>1</title>
<path fill="none" stroke="#59d856" stroke-width="2" stroke-dasharray="5,2" d="M80.5998,-180C80.5998,-180 38.6609,-180 38.6609,-180 32.6609,-180 26.6609,-174 26.6609,-168 26.6609,-168 26.6609,-156 26.6609,-156 26.6609,-150 32.6609,-144 38.6609,-144 38.6609,-144 80.5998,-144 80.5998,-144 86.5998,-144 92.5998,-150 92.5998,-156 92.5998,-156 92.5998,-168 92.5998,-168 92.5998,-174 86.5998,-180 80.5998,-180"/>
<text text-anchor="middle" x="59.6304" y="-159" font-family="sans" font-size="10.00">clean_csvs</text>
</g>
<!-- 1&#45;&gt;0 -->
<g id="edge1" class="edge"><title>1&#45;&gt;0</title>
<path fill="none" stroke="grey" stroke-width="2" d="M68.5565,-143.871C81.3351,-119.35 104.952,-74.0321 119.946,-45.2589"/>
<polygon fill="grey" stroke="grey" stroke-width="2" points="123.155,-46.6749 124.673,-36.1893 116.947,-43.4398 123.155,-46.6749"/>
</g>
<!-- 3 -->
<g id="node4" class="node"><title>3</title>
<path fill="none" stroke="#d6d856" stroke-width="2" d="M182.768,-108C182.768,-108 144.493,-108 144.493,-108 138.493,-108 132.493,-102 132.493,-96 132.493,-96 132.493,-84 132.493,-84 132.493,-78 138.493,-72 144.493,-72 144.493,-72 182.768,-72 182.768,-72 188.768,-72 194.768,-78 194.768,-84 194.768,-84 194.768,-96 194.768,-96 194.768,-102 188.768,-108 182.768,-108"/>
<text text-anchor="middle" x="163.63" y="-87" font-family="sans" font-size="10.00">make_plot</text>
</g>
<!-- 1&#45;&gt;3 -->
<g id="edge7" class="edge"><title>1&#45;&gt;3</title>
<path fill="none" stroke="grey" stroke-width="2" d="M85.0716,-143.876C98.4178,-134.893 114.955,-123.763 129.408,-114.034"/>
<polygon fill="grey" stroke="grey" stroke-width="2" points="131.75,-116.677 138.091,-108.19 127.841,-110.87 131.75,-116.677"/>
</g>
<!-- 2 -->
<g id="node3" class="node"><title>2</title>
<path fill="none" stroke="#59d856" stroke-width="2" stroke-dasharray="5,2" d="M163.6,-180C163.6,-180 121.661,-180 121.661,-180 115.661,-180 109.661,-174 109.661,-168 109.661,-168 109.661,-156 109.661,-156 109.661,-150 115.661,-144 121.661,-144 121.661,-144 163.6,-144 163.6,-144 169.6,-144 175.6,-150 175.6,-156 175.6,-156 175.6,-168 175.6,-168 175.6,-174 169.6,-180 163.6,-180"/>
<text text-anchor="middle" x="142.63" y="-159" font-family="sans" font-size="10.00">clean_csvs</text>
</g>
<!-- 2&#45;&gt;0 -->
<g id="edge2" class="edge"><title>2&#45;&gt;0</title>
<path fill="none" stroke="grey" stroke-width="2" d="M134.737,-143.745C130.523,-133.577 125.773,-120.327 123.63,-108 120.058,-87.4487 122.976,-63.9954 126.563,-46.3256"/>
<polygon fill="grey" stroke="grey" stroke-width="2" points="130.072,-46.6706 128.831,-36.1487 123.24,-45.148 130.072,-46.6706"/>
</g>
<!-- 2&#45;&gt;3 -->
<g id="edge8" class="edge"><title>2&#45;&gt;3</title>
<path fill="none" stroke="grey" stroke-width="2" d="M147.821,-143.697C150.161,-135.898 152.978,-126.509 155.582,-117.829"/>
<polygon fill="grey" stroke="grey" stroke-width="2" points="158.978,-118.688 158.499,-108.104 152.273,-116.677 158.978,-118.688"/>
</g>
<!-- 3&#45;&gt;0 -->
<g id="edge3" class="edge"><title>3&#45;&gt;0</title>
<path fill="none" stroke="grey" stroke-width="2" d="M156.215,-71.6966C152.836,-63.8132 148.761,-54.3042 145.007,-45.5464"/>
<polygon fill="grey" stroke="grey" stroke-width="2" points="148.117,-43.9171 140.961,-36.1043 141.683,-46.6745 148.117,-43.9171"/>
</g>
<!-- 4 -->
<g id="node5" class="node"><title>4</title>
<path fill="none" stroke="#59d856" stroke-width="2" stroke-dasharray="5,2" d="M246.6,-180C246.6,-180 204.661,-180 204.661,-180 198.661,-180 192.661,-174 192.661,-168 192.661,-168 192.661,-156 192.661,-156 192.661,-150 198.661,-144 204.661,-144 204.661,-144 246.6,-144 246.6,-144 252.6,-144 258.6,-150 258.6,-156 258.6,-156 258.6,-168 258.6,-168 258.6,-174 252.6,-180 246.6,-180"/>
<text text-anchor="middle" x="225.63" y="-159" font-family="sans" font-size="10.00">clean_csvs</text>
</g>
<!-- 4&#45;&gt;0 -->
<g id="edge4" class="edge"><title>4&#45;&gt;0</title>
<path fill="none" stroke="grey" stroke-width="2" d="M224.775,-143.915C223.101,-124.935 218.166,-94.0636 203.63,-72 194.977,-58.8651 181.927,-47.708 169.43,-39.0683"/>
<polygon fill="grey" stroke="grey" stroke-width="2" points="171.21,-36.0502 160.928,-33.4958 167.373,-41.9048 171.21,-36.0502"/>
</g>
<!-- 4&#45;&gt;3 -->
<g id="edge9" class="edge"><title>4&#45;&gt;3</title>
<path fill="none" stroke="grey" stroke-width="2" d="M210.305,-143.697C202.872,-135.305 193.807,-125.07 185.65,-115.861"/>
<polygon fill="grey" stroke="grey" stroke-width="2" points="188.03,-113.27 178.78,-108.104 182.79,-117.911 188.03,-113.27"/>
</g>
<!-- 5 -->
<g id="node6" class="node"><title>5</title>
<path fill="none" stroke="#d85656" stroke-width="2" stroke-dasharray="5,2" d="M71.3915,-252C71.3915,-252 11.8692,-252 11.8692,-252 5.86922,-252 -0.130781,-246 -0.130781,-240 -0.130781,-240 -0.130781,-228 -0.130781,-228 -0.130781,-222 5.86922,-216 11.8692,-216 11.8692,-216 71.3915,-216 71.3915,-216 77.3915,-216 83.3915,-222 83.3915,-228 83.3915,-228 83.3915,-240 83.3915,-240 83.3915,-246 77.3915,-252 71.3915,-252"/>
<text text-anchor="middle" x="41.6304" y="-236" font-family="sans" font-size="10.00">get_csv_by_url</text>
<text text-anchor="middle" x="41.6304" y="-226" font-family="sans" font-size="10.00">date: 2018_11</text>
</g>
<!-- 5&#45;&gt;1 -->
<g id="edge5" class="edge"><title>5&#45;&gt;1</title>
<path fill="none" stroke="grey" stroke-width="2" d="M46.0798,-215.697C48.0852,-207.898 50.4996,-198.509 52.7314,-189.829"/>
<polygon fill="grey" stroke="grey" stroke-width="2" points="56.1314,-190.661 55.2321,-180.104 49.3519,-188.918 56.1314,-190.661"/>
</g>
<!-- 6 -->
<g id="node7" class="node"><title>6</title>
<path fill="none" stroke="#d85656" stroke-width="2" stroke-dasharray="5,2" d="M172.392,-252C172.392,-252 112.869,-252 112.869,-252 106.869,-252 100.869,-246 100.869,-240 100.869,-240 100.869,-228 100.869,-228 100.869,-222 106.869,-216 112.869,-216 112.869,-216 172.392,-216 172.392,-216 178.392,-216 184.392,-222 184.392,-228 184.392,-228 184.392,-240 184.392,-240 184.392,-246 178.392,-252 172.392,-252"/>
<text text-anchor="middle" x="142.63" y="-236" font-family="sans" font-size="10.00">get_csv_by_url</text>
<text text-anchor="middle" x="142.63" y="-226" font-family="sans" font-size="10.00">date: 2019_11</text>
</g>
<!-- 6&#45;&gt;2 -->
<g id="edge6" class="edge"><title>6&#45;&gt;2</title>
<path fill="none" stroke="grey" stroke-width="2" d="M142.63,-215.697C142.63,-207.983 142.63,-198.712 142.63,-190.112"/>
<polygon fill="grey" stroke="grey" stroke-width="2" points="146.13,-190.104 142.63,-180.104 139.13,-190.104 146.13,-190.104"/>
</g>
<!-- 7 -->
<g id="node8" class="node"><title>7</title>
<path fill="none" stroke="#d85656" stroke-width="2" stroke-dasharray="5,2" d="M273.392,-252C273.392,-252 213.869,-252 213.869,-252 207.869,-252 201.869,-246 201.869,-240 201.869,-240 201.869,-228 201.869,-228 201.869,-222 207.869,-216 213.869,-216 213.869,-216 273.392,-216 273.392,-216 279.392,-216 285.392,-222 285.392,-228 285.392,-228 285.392,-240 285.392,-240 285.392,-246 279.392,-252 273.392,-252"/>
<text text-anchor="middle" x="243.63" y="-236" font-family="sans" font-size="10.00">get_csv_by_url</text>
<text text-anchor="middle" x="243.63" y="-226" font-family="sans" font-size="10.00">date: 2019_05</text>
</g>
<!-- 7&#45;&gt;4 -->
<g id="edge10" class="edge"><title>7&#45;&gt;4</title>
<path fill="none" stroke="grey" stroke-width="2" d="M239.181,-215.697C237.176,-207.898 234.761,-198.509 232.529,-189.829"/>
<polygon fill="grey" stroke="grey" stroke-width="2" points="235.909,-188.918 230.029,-180.104 229.129,-190.661 235.909,-188.918"/>
</g>
</g>
</svg>
